<?xml version="1.0" standalone="no"?>
<!DOCTYPE svg PUBLIC "-//W3C//DTD SVG 20010904//EN"
 "http://www.w3.org/TR/2001/REC-SVG-20010904/DTD/svg10.dtd">
<svg version="1.0" xmlns="http://www.w3.org/2000/svg"
 width="225.000000pt" height="225.000000pt" viewBox="0 0 225.000000 225.000000"
 preserveAspectRatio="xMidYMid meet">

<g transform="translate(0.000000,225.000000) scale(0.100000,-0.100000)"
fill="#000000" stroke="none">
<path d="M1029 2151 c-189 -74 -394 -197 -556 -332 -87 -74 -246 -232 -312
-314 -48 -58 -50 -81 -26 -272 38 -298 135 -569 307 -859 l60 -101 77 -22
c206 -56 471 -80 686 -62 155 14 212 23 368 58 l117 26 49 76 c127 198 231
458 281 700 11 53 27 164 37 248 l17 152 -30 42 c-45 66 -219 243 -308 315
-168 135 -367 254 -568 338 l-105 44 -94 -37z m220 -52 c268 -117 484 -263
673 -455 53 -55 115 -121 137 -149 45 -55 44 -38 20 -245 -35 -304 -152 -641
-304 -877 l-46 -72 -87 -20 c-373 -86 -757 -85 -1068 5 -50 14 -52 16 -112
118 -173 289 -274 595 -303 910 l-12 125 48 58 c158 188 393 387 594 502 105
60 302 150 330 151 7 0 66 -23 130 -51z"/>
<path d="M984 2072 c-266 -117 -464 -262 -696 -511 l-108 -116 0 -52 c0 -138
49 -394 110 -568 36 -105 164 -366 218 -445 34 -51 41 -56 102 -73 278 -76
634 -83 941 -17 173 37 158 28 227 142 159 265 251 554 282 886 l12 122 -56
68 c-126 155 -315 317 -496 426 -149 90 -357 186 -403 186 -12 0 -72 -22 -133
-48z m281 -18 c155 -70 295 -152 424 -249 108 -82 262 -230 328 -316 l43 -56
-10 -109 c-31 -338 -134 -652 -298 -912 -49 -78 -42 -74 -182 -106 -299 -68
-641 -66 -932 6 l-87 21 -50 82 c-173 281 -284 615 -307 923 l-7 91 73 87
c168 197 407 387 630 500 81 40 212 94 233 94 10 0 74 -25 142 -56z"/>
<path d="M1005 1851 c-292 -64 -500 -299 -522 -590 -3 -42 -1 -100 5 -129 9
-49 8 -53 -12 -57 -133 -31 -189 -45 -193 -49 -10 -10 31 -124 73 -206 203
-395 668 -570 1086 -409 179 70 348 218 442 390 36 66 90 209 82 217 -3 2 -53
15 -111 29 -87 21 -105 28 -101 41 15 51 16 164 2 242 -41 231 -212 426 -436
500 -73 24 -247 35 -315 21z m250 -16 c262 -55 464 -279 494 -548 23 -199 -37
-365 -184 -513 -87 -88 -177 -140 -290 -169 -73 -19 -233 -19 -301 -1 -227 60
-401 233 -461 457 -22 85 -22 234 1 319 87 322 415 523 741 455z m-744 -807
c38 -143 181 -313 320 -381 102 -50 177 -68 291 -68 186 0 325 57 453 186 63
62 90 99 123 165 23 47 42 93 42 102 0 9 4 19 8 22 4 2 50 -6 102 -18 95 -22
95 -22 94 -52 -2 -42 -74 -192 -128 -267 -242 -339 -702 -451 -1076 -262 -139
70 -273 194 -349 322 -39 66 -106 231 -98 240 4 3 176 48 199 52 4 1 12 -18
19 -41z"/>
<path d="M923 1776 c-211 -66 -186 -207 64 -363 84 -52 89 -67 43 -120 -16
-18 -30 -44 -31 -56 -2 -44 3 -80 17 -121 17 -48 94 -166 109 -166 10 0 69 88
100 150 10 19 20 62 23 95 4 58 3 64 -27 97 -47 54 -42 69 43 122 194 121 255
240 161 312 -31 23 -122 64 -144 64 -5 0 -6 -20 -4 -45 6 -49 3 -53 -104 -142
-46 -38 -52 -41 -65 -26 -7 9 -37 33 -65 55 -64 47 -87 86 -73 123 16 41 17
41 -47 21z"/>
<path d="M664 1534 c-62 -106 -67 -161 -23 -254 43 -90 41 -112 -13 -206 -69
-120 -69 -121 -8 -205 l27 -38 81 178 c45 97 82 191 82 207 0 18 -12 44 -30
66 -54 66 -82 141 -83 224 -1 41 -3 74 -4 74 -1 0 -14 -21 -29 -46z"/>
<path d="M1550 1515 c0 -94 -13 -133 -67 -212 -27 -39 -46 -78 -45 -93 0 -14
38 -105 83 -203 l82 -177 19 27 c11 16 28 46 39 67 l21 39 -33 61 c-83 156
-83 156 -72 185 6 14 23 55 38 90 21 50 26 74 21 108 -5 42 -39 119 -70 158
-14 19 -15 15 -16 -50z"/>
<path d="M734 1546 c-3 -15 -4 -53 -2 -84 3 -48 13 -72 56 -143 29 -46 52 -93
52 -104 0 -11 -31 -85 -69 -165 -38 -80 -76 -168 -85 -197 l-15 -52 41 -36 40
-37 99 228 c144 332 144 330 122 364 -10 15 -66 78 -125 140 -103 109 -107
112 -114 86z"/>
<path d="M1382 1440 c-67 -72 -122 -139 -122 -148 0 -12 225 -548 234 -559 2
-2 21 13 44 32 l41 36 -31 87 c-16 48 -54 135 -84 193 -30 59 -54 119 -54 134
0 14 19 57 43 93 53 82 67 121 66 181 -1 94 -4 93 -137 -49z"/>
<path d="M565 1327 c-4 -22 -5 -66 -2 -98 5 -53 2 -63 -19 -89 -21 -24 -24
-36 -18 -65 3 -19 10 -38 15 -41 11 -7 67 80 80 126 8 29 5 48 -19 120 l-30
85 -7 -38z"/>
<path d="M1646 1277 c-33 -99 -31 -117 20 -196 37 -56 48 -57 57 -5 5 24 0 40
-18 64 -21 29 -23 40 -18 94 3 33 1 76 -4 95 -9 33 -9 32 -37 -52z"/>
<path d="M922 1048 c-7 -7 -12 -23 -12 -37 0 -15 -9 -37 -20 -51 -11 -14 -20
-30 -20 -37 0 -7 -11 -29 -25 -49 -32 -47 -33 -98 -2 -118 12 -8 57 -26 99
-39 94 -30 164 -70 173 -98 7 -20 8 -20 24 7 10 16 30 35 44 43 14 8 24 19 20
24 -3 6 -1 7 6 3 12 -8 162 37 199 60 13 9 22 24 22 39 0 26 -67 167 -82 173
-4 2 -8 16 -8 31 0 15 -7 36 -15 47 -15 19 -15 19 -32 -2 -10 -12 -40 -36 -68
-54 -69 -45 -96 -71 -88 -84 3 -6 -11 5 -31 24 -31 29 -39 32 -47 20 -9 -13
-10 -13 -6 1 4 12 -10 26 -45 49 -27 18 -52 39 -55 46 -6 17 -15 18 -31 2z
m53 -68 c-3 -5 -12 -10 -18 -10 -7 0 -6 4 3 10 19 12 23 12 15 0z m280 -30 c3
-6 -1 -7 -9 -4 -18 7 -21 14 -7 14 6 0 13 -4 16 -10z m96 -27 c13 -16 12 -17
-3 -4 -17 13 -22 21 -14 21 2 0 10 -8 17 -17z m-447 -9 c3 -8 2 -12 -4 -9 -6
3 -10 10 -10 16 0 14 7 11 14 -7z m280 -82 c3 -5 -1 -9 -9 -9 -8 0 -12 4 -9 9
3 4 7 8 9 8 2 0 6 -4 9 -8z m-319 -51 c3 -5 2 -12 -3 -15 -5 -3 -9 1 -9 9 0
17 3 19 12 6z m242 -6 c0 -8 -4 -12 -9 -9 -5 3 -6 10 -3 15 9 13 12 11 12 -6z"/>
<path d="M432 997 c-6 -7 -15 -25 -21 -40 -6 -16 -18 -27 -28 -27 -17 1 -16 2
1 15 23 18 10 40 -17 29 -21 -8 -23 -57 -3 -73 18 -15 66 -3 73 18 13 44 24
62 34 55 8 -5 8 -8 0 -14 -16 -9 -3 -40 15 -33 14 5 19 39 8 67 -7 19 -47 21
-62 3z"/>
<path d="M1746 968 c-7 -18 -11 -36 -7 -39 3 -3 35 -16 69 -29 54 -19 65 -21
73 -9 6 10 0 18 -21 28 -37 18 -40 34 -4 21 35 -14 44 -13 44 5 0 17 -46 39
-66 31 -7 -3 -15 2 -18 10 -3 8 -17 14 -31 14 -19 0 -28 -8 -39 -32z m49 -8
c3 -5 -1 -10 -9 -10 -9 0 -16 5 -16 10 0 6 4 10 9 10 6 0 13 -4 16 -10z"/>
<path d="M454 893 c-32 -20 -61 -38 -63 -39 -2 -2 -1 -10 2 -18 5 -14 11 -13
44 6 l38 21 -34 -30 c-37 -31 -30 -54 10 -33 11 7 23 9 26 6 3 -3 -6 -10 -20
-17 -15 -7 -23 -17 -20 -25 8 -20 16 -18 83 24 54 35 59 40 47 57 -11 14 -21
16 -42 11 l-29 -7 24 19 c21 17 22 21 8 40 l-14 21 -60 -36z"/>
<path d="M1708 889 l-17 -29 66 -36 66 -37 18 24 c22 29 23 35 5 42 -8 3 -17
-1 -20 -10 -5 -12 -9 -13 -21 -3 -8 6 -13 17 -12 23 1 8 -9 11 -26 9 -24 -3
-28 0 -23 16 11 32 -18 33 -36 1z"/>
<path d="M1658 813 c-29 -35 -27 -41 32 -87 l59 -46 27 36 28 36 -23 19 c-13
11 -28 19 -35 19 -6 0 -17 9 -24 20 -15 25 -44 26 -64 3z m48 -40 c-7 -7 -26
7 -26 19 0 6 6 6 15 -2 9 -7 13 -15 11 -17z m44 -28 c7 -8 8 -15 2 -15 -5 0
-15 7 -22 15 -7 8 -8 15 -2 15 5 0 15 -7 22 -15z"/>
<path d="M540 769 c-25 -17 -52 -34 -60 -39 -11 -7 -12 -11 -1 -23 7 -9 19
-13 27 -10 10 4 13 -1 12 -17 -5 -41 18 -32 67 25 46 54 47 57 30 75 -22 25
-20 25 -75 -11z m25 -39 c-10 -11 -20 -18 -23 -15 -7 6 18 35 31 35 5 0 2 -9
-8 -20z"/>
<path d="M1596 741 c-11 -12 -14 -21 -7 -26 6 -3 16 -16 22 -27 12 -21 11 -21
-16 0 -27 21 -29 21 -47 5 -18 -16 -17 -18 29 -67 26 -28 49 -53 51 -55 1 -3
8 1 14 7 9 9 8 16 -4 29 -30 36 -30 47 0 19 40 -37 60 -26 30 17 l-22 32 27
-24 c21 -19 30 -22 39 -13 9 9 0 25 -38 66 -27 29 -52 54 -55 55 -3 1 -14 -8
-23 -18z"/>
<path d="M647 644 c-25 -35 -36 -61 -32 -72 5 -15 9 -14 25 8 l18 24 -1 -34
c-3 -51 15 -44 64 24 33 46 39 60 28 67 -10 6 -19 1 -31 -13 -16 -22 -16 -22
-15 11 1 19 -2 35 -8 37 -5 2 -27 -22 -48 -52z"/>
<path d="M1483 653 l-22 -15 41 -62 c23 -33 42 -62 44 -64 1 -2 14 4 29 14 29
19 29 39 -1 39 -14 0 -19 7 -19 25 0 18 -5 24 -17 22 -21 -3 -35 18 -18 28 7
4 9 13 6 19 -9 14 -16 13 -43 -6z"/>
<path d="M744 574 c-20 -36 -35 -66 -33 -68 32 -28 81 -28 59 -1 -14 17 -3 38
15 31 7 -2 16 1 19 9 3 8 0 15 -6 17 -7 3 -8 10 -4 17 5 7 14 10 21 7 28 -10
24 24 -5 39 l-29 15 -37 -66z"/>
<path d="M1433 623 c-18 -6 -16 -17 7 -65 11 -23 20 -52 20 -65 0 -26 8 -29
33 -10 16 11 15 17 -15 78 -20 40 -38 65 -45 62z"/>
<path d="M830 544 c-11 -25 -20 -54 -20 -64 0 -21 25 -44 40 -35 5 3 10 1 10
-4 0 -23 21 -9 37 24 18 38 16 45 -16 48 -16 1 -20 6 -15 22 9 29 28 46 21 18
-3 -14 1 -24 10 -27 20 -8 20 -8 27 10 10 27 -12 54 -45 54 -26 0 -32 -6 -49
-46z m36 -60 c-3 -9 -6 -18 -6 -20 0 -3 -4 -3 -10 1 -11 7 -2 35 12 35 6 0 7
-7 4 -16z"/>
<path d="M938 498 c-17 -78 -14 -88 30 -88 23 0 30 14 12 25 -15 10 -12 35 5
35 8 0 15 7 15 15 0 8 -4 15 -10 15 -19 0 -10 28 10 33 26 7 26 27 1 27 -11 0
-26 2 -33 5 -11 4 -18 -13 -30 -67z"/>
<path d="M1267 563 c-4 -3 -7 -17 -7 -29 0 -17 4 -22 15 -18 8 4 15 12 15 20
0 8 5 14 11 14 7 0 9 -11 6 -29 -4 -20 -2 -31 8 -35 8 -3 15 -16 15 -28 -1
-21 -2 -22 -14 -5 -19 24 -46 22 -39 -3 7 -27 33 -40 61 -29 30 11 35 29 21
65 -7 16 -13 36 -14 45 -1 9 -5 21 -9 28 -8 12 -58 15 -69 4z"/>
<path d="M1030 507 c0 -25 -3 -59 -6 -76 -6 -27 -4 -31 15 -31 17 0 21 6 21
30 0 17 5 30 10 30 6 0 10 -16 10 -35 0 -25 4 -35 16 -35 12 0 15 10 13 43 -1
23 2 50 6 61 12 28 -8 51 -49 54 l-36 3 0 -44z m47 -9 c-3 -8 -6 -5 -6 6 -1
11 2 17 5 13 3 -3 4 -12 1 -19z"/>
<path d="M1140 508 c0 -69 11 -118 26 -118 11 0 14 19 14 80 0 73 -2 80 -20
80 -17 0 -20 -7 -20 -42z"/>
</g>
</svg>
